<svg width="100" height="40" viewBox="0 0 100 40" fill="none" xmlns="http://www.w3.org/2000/svg">
<path d="M1.35997 24.4796C-0.514032 14.5196 6.37331 8.07957 9.83997 6.55957C3.91997 9.87957 0.079975 20.4796 4.79998 27.7996C10.0427 35.9302 18.44 35.8796 18.44 35.8396C19.08 35.4876 20.5466 34.3329 21.2 33.7996C21.32 30.5596 18.72 28.0396 18.76 28.0396C21.84 26.8796 22.2 25.1196 22.28 24.4796C22.36 23.8396 22.3986 23.4319 22.84 23.0396C23.2 22.7196 23.9466 22.0929 24.16 21.7996C24.16 24.1196 24.92 25.6396 26.6 28.3596C27.944 30.5356 30.0933 32.1729 31.08 32.7196C38.12 27.8236 38.7866 20.6796 38.24 17.7196C41.1358 33.3996 28.04 39.7996 21.08 39.7996C9.23998 39.7996 3.06088 33.5196 1.35997 24.4796Z" fill="url(#paint0_linear_10488_65917)"/>
<path d="M25.7199 18.3996C22.1999 19.2636 20.1466 18.1996 19.5599 17.5596C23.1599 21.6796 31.9199 17.1596 31.9199 15.9596C31.9199 15.0082 30.5066 15.3463 29.3999 15.4796C30.1599 15.9996 30.1199 17.3196 25.7199 18.3996Z" fill="url(#paint1_linear_10488_65917)"/>
<path d="M27.36 6.7999C29.1273 6.7999 30.56 5.36721 30.56 3.5999C30.56 3.16426 30.473 2.74896 30.3153 2.37043C30.3705 2.55732 30.4 2.75516 30.4 2.9599C30.4 4.10865 29.4688 5.0399 28.32 5.0399C27.1713 5.0399 26.24 4.10865 26.24 2.9599C26.24 1.81115 27.1713 0.879902 28.32 0.879902C28.8159 0.879902 29.2712 1.05342 29.6287 1.34305C29.0491 0.760504 28.2467 0.399902 27.36 0.399902C25.5927 0.399902 24.16 1.83259 24.16 3.5999C24.16 5.36721 25.5927 6.7999 27.36 6.7999Z" fill="url(#paint2_linear_10488_65917)"/>
<path d="M13.96 13.9196C12.008 14.6876 12.2933 15.3063 12.68 15.5196C10.88 15.5196 10.0265 14.3523 13.32 13.1996C17.32 11.7996 24.6 11.0396 24.64 11.0796C20.8 11.8796 16.4 12.9596 13.96 13.9196Z" fill="url(#paint3_linear_10488_65917)"/>
<path d="M11.3599 13.16C9.27992 14.088 9.93326 14.6667 10.5199 14.84C6.67992 13.92 13.1199 11.16 19.7999 9.56003C26.4799 7.96003 31.8399 8.00004 34.0799 8.64004C36.3199 9.28004 33.7999 10.6 33.7599 10.56C36.1199 8.44003 28.1999 8.84003 23.4799 9.56003C18.7599 10.28 13.9599 12 11.3599 13.16Z" fill="url(#paint4_linear_10488_65917)"/>
<path fill-rule="evenodd" clip-rule="evenodd" d="M25.2399 7.87979C21.1599 8.63979 16.8399 9.63979 13.4399 10.7998C14.4799 9.67979 14.7599 8.19979 14.4799 0.279785C14.595 0.682526 14.7167 1.34677 14.8526 2.08874C15.1892 3.92599 15.6131 6.23979 16.2399 6.23979C16.7954 6.23979 17.0942 5.32272 17.433 4.2828C17.5582 3.89854 17.6888 3.49752 17.8399 3.11979C17.8473 3.11244 17.8344 3.23868 17.8124 3.4539C17.7147 4.41046 17.447 6.83979 18.1999 7.63979C18.9529 8.43979 20.8399 8.47979 25.2399 7.87979ZM15.4399 5.99979C15.5599 6.25312 15.8799 6.67979 16.2799 6.67979C16.6799 6.67979 17.0399 6.47979 17.2399 5.79979C17.3199 6.71979 17.2879 7.69579 16.5199 7.75979C15.7519 7.82379 15.4799 6.99979 15.4399 5.99979Z" fill="url(#paint5_linear_10488_65917)"/>
<path d="M30.32 12.7996C31.5306 11.5217 29.1067 10.8796 27.72 10.7596C29.16 10.3196 32.44 10.5596 33.24 11.2396C34.04 11.9196 33.36 12.7596 30.08 14.5196C26.8 16.2796 20.4 15.4969 19.12 14.8396C17.9237 14.2252 15.6791 13.7459 15.3908 13.7186C15.3805 13.7189 15.3703 13.7192 15.36 13.7196C15.36 13.7169 15.3706 13.7167 15.3908 13.7186C17.7287 13.6465 18.7296 14.4406 20.92 14.6796C26.64 14.8796 29.6 13.5596 30.32 12.7996Z" fill="url(#paint6_linear_10488_65917)"/>
<path fill-rule="evenodd" clip-rule="evenodd" d="M20.8 19.8396C20.6934 20.213 20.544 21.2476 20.8 22.3996C21.12 23.8396 21.56 26.4396 17.92 27.4796C15.92 28.1196 13.6 28.8796 13.56 27.3996C13.56 27.262 13.5798 27.0214 13.5994 26.8613C13.6483 26.463 13.6968 26.0682 13.44 26.0396C13.08 25.9996 12.88 25.9196 12.88 25.6796C12.88 25.4396 12.96 25.2396 13.36 25.2796C13.5146 25.2951 13.6872 25.3345 13.843 25.37C14.0903 25.4264 14.2955 25.4733 14.32 25.3996C14.36 25.2796 13.48 24.6796 12.76 24.5196C12.5474 24.4724 12.6278 24.3414 12.7293 24.1761C12.7996 24.0616 12.88 23.9306 12.88 23.7996C12.88 23.4796 12.8 23.3196 12.4 23.1996C12 23.0796 11.36 22.5196 11.72 22.1596C11.7333 22.1463 11.7479 22.1319 11.7635 22.1163C12.17 21.7113 13.3185 20.5671 13.28 19.7196C13.24 19.3196 13.16 19.1596 12.96 18.8796C12.76 18.5996 12.32 17.7996 12.88 16.1596C13.44 14.5196 14.44 13.7596 15.76 14.2796C16.9903 14.7643 18.0468 15.8744 18.8973 16.7679C18.9593 16.8331 19.0202 16.8971 19.08 16.9596C18.5867 16.5063 17.488 15.5436 17.04 15.3196C17.0275 15.3196 17.0974 15.3903 17.2153 15.5094C17.4737 15.7707 17.9629 16.2652 18.32 16.7596C18.432 16.9146 18.5772 17.1326 18.7435 17.3821C19.3497 18.2917 20.235 19.6199 20.8 19.8396ZM16.36 18.3996C16.0667 18.1063 15.168 17.6236 13.92 18.0396C12.36 18.5596 13.4 18.9196 13.6 18.7596L13.6099 18.7517C13.83 18.5751 14.7849 17.809 16.36 18.3996ZM19.76 21.3196C19.664 21.2556 17.8267 23.0796 16.92 23.9996C17.016 23.9996 17.8667 23.3063 18.28 22.9596C17.9067 23.4796 17.176 24.5276 17.24 24.5596C17.32 24.5996 19.88 21.3996 19.76 21.3196ZM12.36 22.7596C12.48 22.6796 13.36 22.9196 13.16 23.0796C12.96 23.2396 12.36 22.9196 12.36 22.7596ZM14.16 19.7196C14.28 19.7196 14.4 19.1196 14.28 19.1196C14.16 19.1196 14.04 19.7196 14.16 19.7196ZM14.08 20.2796C14.0534 20.3996 13.928 20.6796 13.64 20.8396C13.6 20.8396 15.28 21.1596 15.84 19.8796C15.56 20.0663 14.816 20.4076 14.08 20.2796Z" fill="url(#paint7_linear_10488_65917)"/>
<path d="M94.5435 16.6437C94.2349 16.1268 93.89 15.5737 93.5089 14.9843C93.1277 14.3858 92.733 13.7873 92.3246 13.1888C91.9162 12.5813 91.4988 11.9964 91.0722 11.4342C90.6548 10.8629 90.2555 10.3506 89.8743 9.89719V16.6437H88.1864V7.21761H89.5885C89.9515 7.59847 90.3417 8.05186 90.7592 8.5778C91.1766 9.09467 91.5941 9.63422 92.0115 10.1964C92.438 10.7586 92.8464 11.3254 93.2366 11.8967C93.6359 12.4589 93.9899 12.9848 94.2984 13.4745V7.21761H96V16.6437H94.5435Z" fill="url(#paint8_linear_10488_65917)"/>
<path d="M79.8019 16.6437V7.21761H85.8595V8.67302H81.5171V10.9989H85.383V12.4271H81.5171V15.1883H86.1862V16.6437H79.8019Z" fill="url(#paint9_linear_10488_65917)"/>
<path d="M71.4174 16.6437V7.21761H77.475V8.67302H73.1326V10.9989H76.9985V12.4271H73.1326V15.1883H77.8017V16.6437H71.4174Z" fill="url(#paint10_linear_10488_65917)"/>
<path d="M65.0722 16.8477C64.4279 16.8477 63.8743 16.7571 63.4115 16.5757C62.9486 16.3853 62.563 16.1223 62.2544 15.7868C61.9549 15.4513 61.7326 15.0568 61.5874 14.6034C61.4422 14.15 61.3696 13.6513 61.3696 13.1072V7.21761H63.0984V12.944C63.0984 13.3702 63.1438 13.7375 63.2345 14.0458C63.3343 14.345 63.4705 14.5898 63.6429 14.7803C63.8244 14.9707 64.0331 15.1112 64.2691 15.2019C64.5141 15.2926 64.7863 15.3379 65.0858 15.3379C65.3853 15.3379 65.6576 15.2926 65.9026 15.2019C66.1476 15.1112 66.3563 14.9707 66.5288 14.7803C66.7103 14.5898 66.8464 14.345 66.9371 14.0458C67.037 13.7375 67.0869 13.3702 67.0869 12.944V7.21761H68.8157V13.1072C68.8157 13.6513 68.7385 14.15 68.5843 14.6034C68.4391 15.0568 68.2122 15.4513 67.9036 15.7868C67.6042 16.1223 67.2185 16.3853 66.7466 16.5757C66.2747 16.7571 65.7165 16.8477 65.0722 16.8477Z" fill="url(#paint11_linear_10488_65917)"/>
<path d="M51.7832 11.9239C51.7832 12.4408 51.8468 12.9123 51.9738 13.3385C52.1009 13.7556 52.2824 14.1138 52.5183 14.413C52.7634 14.7032 53.0583 14.9299 53.4031 15.0931C53.748 15.2563 54.1382 15.338 54.5738 15.338C55.0004 15.338 55.386 15.2563 55.7309 15.0931C56.0758 14.9299 56.3662 14.7032 56.6021 14.413C56.8471 14.1138 57.0332 13.7556 57.1602 13.3385C57.2873 12.9123 57.3508 12.4408 57.3508 11.9239C57.3508 11.407 57.2873 10.94 57.1602 10.5229C57.0332 10.0967 56.8471 9.73851 56.6021 9.44834C56.3662 9.1491 56.0758 8.91787 55.7309 8.75464C55.386 8.59142 55.0004 8.50981 54.5738 8.50981C54.1382 8.50981 53.748 8.59142 53.4031 8.75464C53.0583 8.91787 52.7634 9.1491 52.5183 9.44834C52.2824 9.74758 52.1009 10.1058 51.9738 10.5229C51.8468 10.94 51.7832 11.407 51.7832 11.9239ZM59.1477 11.9239C59.1477 12.604 59.0614 13.2161 58.889 13.7601C58.7166 14.3042 58.4761 14.7803 58.1676 15.1883C57.859 15.5873 57.496 15.9138 57.0785 16.1677C56.6702 16.4216 56.221 16.6029 55.7309 16.7117C55.7581 16.9022 55.8534 17.0654 56.0168 17.2014C56.1801 17.3374 56.3843 17.4508 56.6293 17.5415C56.8834 17.6321 57.1693 17.7047 57.4869 17.7591C57.8136 17.8226 58.1539 17.8679 58.5079 17.8951L58.1267 19.1873C56.956 19.0966 56.0258 18.8699 55.3361 18.5072C54.6464 18.1535 54.2063 17.5868 54.0157 16.807C53.4531 16.7526 52.9267 16.6075 52.4367 16.3717C51.9557 16.1359 51.5337 15.814 51.1707 15.406C50.8077 14.9979 50.5218 14.5037 50.3131 13.9234C50.1044 13.343 50 12.6765 50 11.9239C50 11.1168 50.1225 10.4095 50.3675 9.80199C50.6126 9.18537 50.9438 8.6685 51.3613 8.25137C51.7878 7.83425 52.2778 7.52141 52.8314 7.31284C53.385 7.10428 53.9703 7 54.5874 7C55.2045 7 55.7899 7.10428 56.3435 7.31284C56.897 7.52141 57.378 7.83425 57.7864 8.25137C58.2039 8.6685 58.5351 9.18537 58.7801 9.80199C59.0251 10.4095 59.1477 11.1168 59.1477 11.9239Z" fill="url(#paint12_linear_10488_65917)"/>
<path d="M92.1148 31.5174C92.7319 31.5174 93.1811 31.4131 93.4624 31.2046C93.7438 30.996 93.8844 30.7013 93.8844 30.3204C93.8844 30.0937 93.8345 29.8988 93.7347 29.7355C93.6439 29.5723 93.5078 29.4272 93.3263 29.3003C93.1539 29.1643 92.9406 29.0419 92.6865 28.933C92.4324 28.8152 92.142 28.7018 91.8153 28.593C91.4886 28.4751 91.171 28.3482 90.8624 28.2121C90.563 28.0671 90.2952 27.8902 90.0593 27.6817C89.8324 27.4731 89.6464 27.2237 89.5012 26.9336C89.365 26.6434 89.297 26.2943 89.297 25.8862C89.297 25.0338 89.5919 24.3673 90.1818 23.8867C90.7717 23.3971 91.5748 23.1522 92.5912 23.1522C93.1811 23.1522 93.7029 23.2202 94.1567 23.3563C94.6195 23.4832 94.9825 23.6238 95.2457 23.7779L94.7148 25.1653C94.4062 24.993 94.0659 24.8615 93.6939 24.7709C93.3308 24.6802 92.9542 24.6348 92.564 24.6348C92.1012 24.6348 91.7382 24.7301 91.475 24.9205C91.2209 25.1109 91.0938 25.3784 91.0938 25.723C91.0938 25.9316 91.1347 26.1129 91.2164 26.2671C91.3071 26.4122 91.4296 26.5436 91.5839 26.6615C91.7472 26.7794 91.9333 26.8882 92.142 26.988C92.3598 27.0877 92.5958 27.1829 92.8499 27.2736C93.2945 27.4368 93.6893 27.6046 94.0342 27.7769C94.3881 27.9401 94.683 28.1396 94.919 28.3754C95.164 28.6021 95.35 28.8741 95.4771 29.1915C95.6042 29.4998 95.6677 29.8761 95.6677 30.3204C95.6677 31.1728 95.3637 31.8348 94.7556 32.3063C94.1567 32.7688 93.2764 33 92.1148 33C91.7246 33 91.3661 32.9728 91.0394 32.9184C90.7218 32.8731 90.4359 32.8141 90.1818 32.7416C89.9368 32.669 89.7235 32.5965 89.542 32.5239C89.3605 32.4423 89.2153 32.3698 89.1064 32.3063L89.6101 30.9053C89.8551 31.0413 90.1863 31.1773 90.6038 31.3134C91.0212 31.4494 91.5249 31.5174 92.1148 31.5174Z" fill="url(#paint13_linear_10488_65917)"/>
<path d="M83.9304 32.796C83.6219 32.2791 83.277 31.7259 82.8959 31.1365C82.5147 30.538 82.12 29.9396 81.7116 29.3411C81.3032 28.7335 80.8857 28.1486 80.4592 27.5864C80.0418 27.0152 79.6425 26.5028 79.2613 26.0494V32.796H77.5734V23.3699H78.9754C79.3385 23.7507 79.7287 24.2041 80.1461 24.73C80.5636 25.2469 80.981 25.7865 81.3985 26.3487C81.825 26.9109 82.2334 27.4776 82.6236 28.0489C83.0229 28.6111 83.3769 29.1371 83.6854 29.6267V23.3699H85.387V32.796H83.9304Z" fill="url(#paint14_linear_10488_65917)"/>
<path d="M71.4206 23.3699H73.1358V32.796H71.4206V23.3699Z" fill="url(#paint15_linear_10488_65917)"/>
<path d="M63.4293 23.2746C64.7997 23.2746 65.8478 23.524 66.5739 24.0227C67.3089 24.5215 67.6765 25.3013 67.6765 26.3623C67.6765 26.9154 67.5766 27.3915 67.377 27.7905C67.1864 28.1804 66.9051 28.5023 66.533 28.7562C66.1609 29.001 65.7072 29.1824 65.1718 29.3003C64.6363 29.4182 64.0238 29.4771 63.3341 29.4771H62.4765V32.796H60.7613V23.5059C61.1606 23.4152 61.6007 23.3563 62.0817 23.329C62.5718 23.2928 63.021 23.2746 63.4293 23.2746ZM63.5519 24.7572C63.1163 24.7572 62.7578 24.7708 62.4765 24.798V28.0081H63.3068C64.1327 28.0081 64.7679 27.8947 65.2126 27.668C65.6573 27.4323 65.8796 26.9925 65.8796 26.3487C65.8796 26.0404 65.8206 25.7819 65.7026 25.5734C65.5847 25.3648 65.4213 25.2016 65.2126 25.0837C65.0039 24.9658 64.7543 24.8842 64.4639 24.8389C64.1826 24.7844 63.8786 24.7572 63.5519 24.7572Z" fill="url(#paint16_linear_10488_65917)"/>
<path d="M53.5189 31.5174C54.136 31.5174 54.5852 31.4131 54.8665 31.2046C55.1478 30.996 55.2885 30.7013 55.2885 30.3204C55.2885 30.0937 55.2386 29.8988 55.1388 29.7355C55.048 29.5723 54.9119 29.4272 54.7304 29.3003C54.558 29.1643 54.3447 29.0419 54.0906 28.933C53.8365 28.8152 53.5461 28.7018 53.2194 28.593C52.8927 28.4751 52.5751 28.3482 52.2665 28.2121C51.967 28.0671 51.6993 27.8902 51.4634 27.6817C51.2365 27.4731 51.0504 27.2237 50.9052 26.9336C50.7691 26.6434 50.7011 26.2943 50.7011 25.8862C50.7011 25.0338 50.996 24.3673 51.5859 23.8867C52.1758 23.3971 52.9789 23.1522 53.9953 23.1522C54.5852 23.1522 55.107 23.2202 55.5607 23.3563C56.0236 23.4832 56.3866 23.6238 56.6498 23.7779L56.1189 25.1653C55.8103 24.993 55.47 24.8615 55.0979 24.7709C54.7349 24.6802 54.3583 24.6348 53.9681 24.6348C53.5052 24.6348 53.1422 24.7301 52.8791 24.9205C52.625 25.1109 52.4979 25.3784 52.4979 25.723C52.4979 25.9316 52.5388 26.1129 52.6204 26.2671C52.7112 26.4122 52.8337 26.5436 52.988 26.6615C53.1513 26.7794 53.3374 26.8882 53.5461 26.988C53.7639 27.0877 53.9998 27.1829 54.2539 27.2736C54.6986 27.4368 55.0934 27.6046 55.4382 27.7769C55.7922 27.9401 56.0871 28.1396 56.3231 28.3754C56.5681 28.6021 56.7541 28.8741 56.8812 29.1915C57.0082 29.4998 57.0717 29.8761 57.0717 30.3204C57.0717 31.1728 56.7677 31.8348 56.1597 32.3063C55.5607 32.7688 54.6805 33 53.5189 33C53.1286 33 52.7702 32.9728 52.4435 32.9184C52.1258 32.8731 51.84 32.8141 51.5859 32.7416C51.3408 32.669 51.1276 32.5965 50.9461 32.5239C50.7646 32.4423 50.6194 32.3698 50.5105 32.3063L51.0141 30.9053C51.2592 31.0413 51.5904 31.1773 52.0079 31.3134C52.4253 31.4494 52.929 31.5174 53.5189 31.5174Z" fill="url(#paint17_linear_10488_65917)"/>
<defs>
<linearGradient id="paint0_linear_10488_65917" x1="5.03998" y1="9.35957" x2="37.2" y2="31.6396" gradientUnits="userSpaceOnUse">
<stop stop-color="#5564FF"/>
<stop offset="0.477085" stop-color="#FF05D7"/>
<stop offset="0.915296" stop-color="#FFEE55"/>
</linearGradient>
<linearGradient id="paint1_linear_10488_65917" x1="19.9949" y1="18.2631" x2="32.0479" y2="16.6642" gradientUnits="userSpaceOnUse">
<stop stop-color="#FF05D7"/>
<stop offset="0.410456" stop-color="#FFEE55"/>
<stop offset="0.650124" stop-color="#FFEE55"/>
<stop offset="0.923582" stop-color="#DC00FF"/>
</linearGradient>
<linearGradient id="paint2_linear_10488_65917" x1="27.36" y1="0.399902" x2="27.36" y2="6.7999" gradientUnits="userSpaceOnUse">
<stop stop-color="#FF05D7"/>
<stop offset="1" stop-color="#FFEE55"/>
</linearGradient>
<linearGradient id="paint3_linear_10488_65917" x1="10.8947" y1="14.66" x2="24.8099" y2="12.7759" gradientUnits="userSpaceOnUse">
<stop stop-color="#FF05D7"/>
<stop offset="0.400819" stop-color="#FFEE55"/>
</linearGradient>
<linearGradient id="paint4_linear_10488_65917" x1="8.99992" y1="13.56" x2="35.0399" y2="9.08003" gradientUnits="userSpaceOnUse">
<stop stop-color="#FF05D7"/>
<stop offset="0.308152" stop-color="#FFEE55"/>
<stop offset="0.58004" stop-color="#FFEE55"/>
<stop offset="1" stop-color="#DC00FF"/>
</linearGradient>
<linearGradient id="paint5_linear_10488_65917" x1="19.3399" y1="0.279785" x2="19.3399" y2="10.7998" gradientUnits="userSpaceOnUse">
<stop stop-color="#FF05D7"/>
<stop offset="1" stop-color="#FFEE55"/>
</linearGradient>
<linearGradient id="paint6_linear_10488_65917" x1="16" y1="14.3196" x2="33.6362" y2="11.6332" gradientUnits="userSpaceOnUse">
<stop stop-color="#FF05D7"/>
<stop offset="0.337858" stop-color="#FFEE55"/>
<stop offset="0.586426" stop-color="#FFEE55"/>
<stop offset="0.923582" stop-color="#DC00FF"/>
</linearGradient>
<linearGradient id="paint7_linear_10488_65917" x1="13.88" y1="14.0796" x2="18.36" y2="28.2396" gradientUnits="userSpaceOnUse">
<stop stop-color="#5564FF"/>
<stop offset="1" stop-color="#FF05D7"/>
</linearGradient>
<linearGradient id="paint8_linear_10488_65917" x1="65.5" y1="5.5" x2="70.9072" y2="35.2095" gradientUnits="userSpaceOnUse">
<stop stop-color="#5564FF"/>
<stop offset="0.395" stop-color="#FF05D7"/>
<stop offset="0.953879" stop-color="#FFEE55"/>
</linearGradient>
<linearGradient id="paint9_linear_10488_65917" x1="65.5" y1="5.5" x2="70.9072" y2="35.2095" gradientUnits="userSpaceOnUse">
<stop stop-color="#5564FF"/>
<stop offset="0.395" stop-color="#FF05D7"/>
<stop offset="0.953879" stop-color="#FFEE55"/>
</linearGradient>
<linearGradient id="paint10_linear_10488_65917" x1="65.5" y1="5.5" x2="70.9072" y2="35.2095" gradientUnits="userSpaceOnUse">
<stop stop-color="#5564FF"/>
<stop offset="0.395" stop-color="#FF05D7"/>
<stop offset="0.953879" stop-color="#FFEE55"/>
</linearGradient>
<linearGradient id="paint11_linear_10488_65917" x1="65.5" y1="5.5" x2="70.9072" y2="35.2095" gradientUnits="userSpaceOnUse">
<stop stop-color="#5564FF"/>
<stop offset="0.395" stop-color="#FF05D7"/>
<stop offset="0.953879" stop-color="#FFEE55"/>
</linearGradient>
<linearGradient id="paint12_linear_10488_65917" x1="65.5" y1="5.5" x2="70.9072" y2="35.2095" gradientUnits="userSpaceOnUse">
<stop stop-color="#5564FF"/>
<stop offset="0.395" stop-color="#FF05D7"/>
<stop offset="0.953879" stop-color="#FFEE55"/>
</linearGradient>
<linearGradient id="paint13_linear_10488_65917" x1="65.5" y1="5.5" x2="70.9072" y2="35.2095" gradientUnits="userSpaceOnUse">
<stop stop-color="#5564FF"/>
<stop offset="0.395" stop-color="#FF05D7"/>
<stop offset="0.953879" stop-color="#FFEE55"/>
</linearGradient>
<linearGradient id="paint14_linear_10488_65917" x1="65.5" y1="5.5" x2="70.9072" y2="35.2095" gradientUnits="userSpaceOnUse">
<stop stop-color="#5564FF"/>
<stop offset="0.395" stop-color="#FF05D7"/>
<stop offset="0.953879" stop-color="#FFEE55"/>
</linearGradient>
<linearGradient id="paint15_linear_10488_65917" x1="65.5" y1="5.5" x2="70.9072" y2="35.2095" gradientUnits="userSpaceOnUse">
<stop stop-color="#5564FF"/>
<stop offset="0.395" stop-color="#FF05D7"/>
<stop offset="0.953879" stop-color="#FFEE55"/>
</linearGradient>
<linearGradient id="paint16_linear_10488_65917" x1="65.5" y1="5.5" x2="70.9072" y2="35.2095" gradientUnits="userSpaceOnUse">
<stop stop-color="#5564FF"/>
<stop offset="0.395" stop-color="#FF05D7"/>
<stop offset="0.953879" stop-color="#FFEE55"/>
</linearGradient>
<linearGradient id="paint17_linear_10488_65917" x1="65.5" y1="5.5" x2="70.9072" y2="35.2095" gradientUnits="userSpaceOnUse">
<stop stop-color="#5564FF"/>
<stop offset="0.395" stop-color="#FF05D7"/>
<stop offset="0.953879" stop-color="#FFEE55"/>
</linearGradient>
</defs>
</svg>
